<svg width="539" height="407" viewBox="0 0 539 407" fill="none" xmlns="http://www.w3.org/2000/svg">
<path d="M141.376 141.376H0V0H141.376V141.376ZM8.94077 132.445H132.445V8.94083H8.94077V132.445Z" fill="white"/>
<path d="M77.1054 100.44V40.9371H113.09V28.229H28.1719V40.9371H64.4072V100.44H28.2971V113.148H113.206V100.44H77.1054Z" fill="white"/>
<path d="M273.82 273.822H132.443V132.445H273.82V273.822ZM141.375 264.881H264.879V141.377H141.375V264.881Z" fill="white"/>
<path d="M203.191 160.674H160.674V245.593H203.249C226.641 245.525 245.583 226.545 245.583 203.133C245.583 179.722 226.603 160.713 203.181 160.674H203.191ZM203.133 232.885H173.382V173.373H203.133C219.57 173.373 231.988 186.697 231.988 203.124C231.988 219.55 219.57 232.875 203.133 232.875V232.885Z" fill="white"/>
<path d="M406.267 406.257H264.891V264.881H406.267V406.257ZM273.822 397.326H397.326V273.822H273.822V397.326Z" fill="white"/>
<path d="M378.028 305.817V293.109H293.138H293.119V378.028H378.028V365.32H305.837V341.918H362.651V329.219H305.837V305.817H378.028Z" fill="white"/>
<path d="M538.703 273.812H397.326V132.436H538.703V273.812ZM406.267 264.881H529.771V141.376H406.267V264.881Z" fill="white"/>
<path d="M468.014 250.39C441.616 250.39 420.141 229.262 420.141 203.124C420.141 176.985 441.616 155.857 468.014 155.857C494.413 155.857 515.879 176.985 515.879 203.124C515.879 229.262 494.403 250.39 468.014 250.39ZM468.014 170.01C449.516 170.01 434.506 184.779 434.506 203.124C434.506 221.468 449.526 236.237 468.014 236.237C486.503 236.237 501.523 221.468 501.523 203.124C501.523 184.779 486.503 170.01 468.014 170.01Z" fill="white"/>
</svg>
